<?xml version="1.0" encoding="utf-8"?>
<svg viewBox="135.21075439453125 115.81459045410156 114.84867858886719 114.47463989257812" width="114.84867858886719" height="114.47463989257812" xmlns="http://www.w3.org/2000/svg">
  <g transform="matrix(0.3943970203399658, -0.3663320243358612, 0.2628619968891144, 0.28299999237060547, 40.645896911621094, 190.52117919921875)">
    <path d="M 151.659 231.971 L 210.936 231.971 C 218.288 189.02 255.146 319.803 227.702 134.279 C 228.936 227.243 156.601 231.971 151.659 231.971 Z M 238.847 231.971 L 300.392 231.971 L 238.847 231.971 Z M 307.665 234.335 L 251.742 232.761 C 252.491 180.765 287.201 271.36 227.933 134.279 C 247.847 163.143 306.869 234.447 307.665 234.335 Z" style="stroke-width: 1px; fill: rgb(250, 141, 87);"/>
    <path d="M 150.275 237.356 L 209.552 237.356 C 216.904 280.307 253.762 149.524 226.318 335.048 C 227.552 242.084 155.217 237.356 150.275 237.356 Z M 237.463 237.356 L 299.008 237.356 L 237.463 237.356 Z M 306.281 234.992 L 250.358 236.566 C 251.107 288.562 285.817 197.967 226.549 335.048 C 246.463 306.184 305.485 234.88 306.281 234.992 Z" style="stroke-width: 1px; fill: rgb(250, 141, 87);"/>
  </g>
</svg>