<?xml version="1.0" encoding="utf-8"?>
<svg viewBox="0 0 500 500" xmlns="http://www.w3.org/2000/svg" xmlns:bx="https://boxy-svg.com">
  <defs>
    <pattern id="pattern-0" x="0" y="0" width="20" height="20" patternUnits="userSpaceOnUse" viewBox="0 0 100 100">
      <path d="M 0 0 L 50 0 L 50 100 L 0 100 Z" style="fill: black;"/>
    </pattern>
  </defs>
  <polyline style="fill: rgb(216, 216, 216); stroke: rgb(0, 0, 0);" points="244.444 148.413"/>
  <polyline style="fill: rgb(216, 216, 216); stroke: rgb(0, 0, 0);" points="253.175 148.81" transform="matrix(-1, 0, 0, -1, 506.349985, 297.620019)"/>
  <g transform="matrix(3.668649, 0.038578, -0.032861, 3.12523, -1040.278564, -238.914368)">
    <g transform="matrix(0.47821, 0.275539, 0.381168, -0.704957, 230.588226, 211.479614)">
      <path d="M 302 258 m -52.608 0 a 52.608 49.988 0 1 0 105.216 0 a 52.608 49.988 0 1 0 -105.216 0 Z M 302 258 m -31.563 0 a 31.563 29.991 0 0 1 63.126 0 a 31.563 29.991 0 0 1 -63.126 0 Z" transform="matrix(-0.710183, 0.704017, -0.640147, -0.773499, 500.412009, 130.075023)" style="fill: rgb(78, 78, 78);" bx:shape="ring 302 258 31.563 29.991 52.608 49.988 1@2a56c72f"/>
      <path d="M 302 258 m -52.608 0 a 52.608 49.988 0 1 0 105.216 0 a 52.608 49.988 0 1 0 -105.216 0 Z M 302 258 m -31.563 0 a 31.563 29.991 0 0 1 63.126 0 a 31.563 29.991 0 0 1 -63.126 0 Z" transform="matrix(-0.710185, 0.704015, -0.640146, -0.773499, 512.634616, 128.318831)" style="fill: rgb(207, 52, 52);" bx:shape="ring 302 258 31.563 29.991 52.608 49.988 1@2a56c72f"/>
      <path d="M 189.48 159.031 C 188.132 162.342 186.549 165.432 184.767 168.294 L 184.117 165.533 L 164.18 181.457 L 171.398 183.135 C 150.478 199.216 120.583 197.687 104.255 174.464 C 93.941 159.797 92.062 139.765 99.329 121.913 C 108.985 98.187 130.702 85.834 151.141 87.268 L 148.966 90.8 L 162.467 104.235 L 177.193 98.194 C 179.86 100.562 182.334 103.32 184.555 106.48 C 194.869 121.148 196.746 141.18 189.48 159.031 Z M 141.449 108.943 C 124.412 112.027 113.55 129.011 114.795 145.309 L 106.411 152.006 L 116.861 154.435 C 117.733 156.664 118.878 158.824 120.315 160.867 C 126.504 169.667 136.813 173.912 147.36 172.002 C 170.086 167.886 181.827 139.039 168.493 120.077 C 162.305 111.278 151.996 107.033 141.449 108.943 Z" style="fill: rgb(255, 111, 92);" transform="matrix(0.99692, -0.07842, 0.07842, 0.99692, -10.571145, 11.756858)"/>
    </g>
    <g transform="matrix(-0.01097, -0.657731, -0.672791, -0.033829, 454.295593, 253.636017)">
      <path d="M 302 258 m -52.608 0 a 52.608 49.988 0 1 0 105.216 0 a 52.608 49.988 0 1 0 -105.216 0 Z M 302 258 m -31.563 0 a 31.563 29.991 0 0 1 63.126 0 a 31.563 29.991 0 0 1 -63.126 0 Z" transform="matrix(-0.710183, 0.704017, -0.640147, -0.773499, 500.412009, 130.075023)" style="fill: rgb(78, 78, 78);" bx:shape="ring 302 258 31.563 29.991 52.608 49.988 1@2a56c72f"/>
      <path d="M 302 258 m -52.608 0 a 52.608 49.988 0 1 0 105.216 0 a 52.608 49.988 0 1 0 -105.216 0 Z M 302 258 m -31.563 0 a 31.563 29.991 0 0 1 63.126 0 a 31.563 29.991 0 0 1 -63.126 0 Z" transform="matrix(-0.710185, 0.704015, -0.640146, -0.773499, 512.634616, 128.318831)" style="fill: rgb(207, 52, 52);" bx:shape="ring 302 258 31.563 29.991 52.608 49.988 1@2a56c72f"/>
      <path d="M 189.48 159.031 C 188.132 162.342 186.549 165.432 184.767 168.294 L 184.117 165.533 L 164.18 181.457 L 171.398 183.135 C 150.478 199.216 120.583 197.687 104.255 174.464 C 93.941 159.797 92.062 139.765 99.329 121.913 C 108.985 98.187 130.702 85.834 151.141 87.268 L 148.966 90.8 L 162.467 104.235 L 177.193 98.194 C 179.86 100.562 182.334 103.32 184.555 106.48 C 194.869 121.148 196.746 141.18 189.48 159.031 Z M 141.449 108.943 C 124.412 112.027 113.55 129.011 114.795 145.309 L 106.411 152.006 L 116.861 154.435 C 117.733 156.664 118.878 158.824 120.315 160.867 C 126.504 169.667 136.813 173.912 147.36 172.002 C 170.086 167.886 181.827 139.039 168.493 120.077 C 162.305 111.278 151.996 107.033 141.449 108.943 Z" style="fill: rgb(255, 111, 92);" transform="matrix(0.99692, -0.07842, 0.07842, 0.99692, -10.571145, 11.756858)"/>
    </g>
  </g>
</svg>