<?xml version="1.0" encoding="utf-8"?>
<svg viewBox="0 0 500 500" xmlns="http://www.w3.org/2000/svg">
  <defs>
    <pattern id="pattern-0" x="0" y="0" width="20" height="20" patternUnits="userSpaceOnUse" viewBox="0 0 100 100">
      <path d="M 0 0 L 50 0 L 50 100 L 0 100 Z" style="fill: black;"/>
    </pattern>
  </defs>
  <g transform="matrix(0.687404, 0, 0, 0.701361, 65.973984, 11.327432)">
    <rect x="82.167" y="85.125" width="256.768" height="93.715" rx="20.963" ry="20.963" transform="matrix(0.755596, 0.655038, -0.673271, 0.739789, 244.024223, 9.742635)" style="stroke-linecap: square; fill: none; stroke: rgb(111, 111, 111);"/>
    <rect x="55.037" y="54.885" width="171.986" height="60.424" transform="matrix(0.698473, -0.715636, 0.732589, 0.681104, 57.339175, 388.890587)" rx="10.522" ry="10.522" style="fill: none; stroke: rgb(111, 111, 111);"/>
    <rect x="382.585" y="112.881" width="22.503" height="94.068" transform="matrix(0.74787, 0.663844, -0.681936, 0.731811, 202.812829, -69.427368)" style="fill: none; stroke: rgb(111, 111, 111);"/>
    <rect x="382.585" y="110.952" width="22.503" height="92.462" transform="matrix(0.747871, 0.663843, -0.681936, 0.731811, 52.348046, -195.82409)" style="fill: none; stroke: rgb(111, 111, 111);"/>
    <ellipse transform="matrix(-0.56403, 0.825751, -0.838401, -0.545516, 877.70946, 218.690348)" cx="543.124" cy="513.756" rx="4.086" ry="4.126" style="stroke: rgb(111, 111, 111); fill: rgb(250, 229, 4);"/>
    <ellipse transform="matrix(-0.564035, 0.825763, -0.838409, -0.545502, 917.888673, 257.387351)" cx="543.114" cy="513.742" rx="4.086" ry="4.126" style="stroke: rgb(111, 111, 111); fill: rgb(250, 229, 4);"/>
    <ellipse transform="matrix(-0.564037, 0.825743, -0.838388, -0.545527, 1033.874654, 137.819823)" cx="543.114" cy="513.743" rx="4.086" ry="4.126" style="stroke: rgb(111, 111, 111); fill: rgb(250, 229, 4);"/>
    <ellipse transform="matrix(-0.564073, 0.825738, -0.838405, -0.545512, 992.931047, 99.667058)" cx="543.097" cy="513.731" rx="4.086" ry="4.124" style="stroke: rgb(111, 111, 111); fill: rgb(250, 229, 4);"/>
    <ellipse transform="matrix(-0.56405, 0.825745, -0.838405, -0.54552, 953.897192, 53.820727)" cx="543.08" cy="513.74" rx="4.086" ry="4.126" style="stroke: rgb(111, 111, 111); fill: rgb(250, 229, 4);"/>
    <ellipse transform="matrix(-0.564042, 0.825752, -0.838403, -0.545505, 936.411599, 39.703772)" cx="543.106" cy="513.757" rx="4.086" ry="4.126" style="stroke: rgb(111, 111, 111); fill: rgb(250, 229, 4);"/>
    <ellipse transform="matrix(-0.564053, 0.825748, -0.83841, -0.545509, 1015.540757, -13.836741)" cx="543.097" cy="513.744" rx="4.086" ry="4.126" style="stroke: rgb(111, 111, 111); fill: rgb(250, 229, 4);"/>
    <ellipse transform="matrix(-0.564061, 0.825737, -0.838388, -0.545519, 999.415429, -27.921401)" cx="543.095" cy="513.734" rx="4.086" ry="4.124" style="stroke: rgb(111, 111, 111); fill: rgb(250, 229, 4);"/>
    <ellipse transform="matrix(-0.564052, 0.825728, -0.838401, -0.545524, 1147.901652, 100.309404)" cx="543.111" cy="513.743" rx="4.086" ry="4.126" style="stroke: rgb(111, 111, 111); fill: rgb(250, 229, 4);"/>
    <ellipse transform="matrix(-0.564046, 0.825748, -0.83841, -0.54549, 1084.862917, 166.53405)" cx="543.085" cy="513.75" rx="4.086" ry="4.126" style="stroke: rgb(111, 111, 111); fill: rgb(250, 229, 4);"/>
    <ellipse transform="matrix(-0.564046, 0.825748, -0.83841, -0.54549, 1100.970094, 181.329643)" cx="543.085" cy="513.75" rx="4.086" ry="4.126" style="stroke: rgb(111, 111, 111); fill: rgb(250, 229, 4);"/>
    <ellipse transform="matrix(-0.56406, 0.825728, -0.838409, -0.545512, 1163.993707, 113.692198)" cx="543.095" cy="513.728" rx="4.086" ry="4.124" style="stroke: rgb(111, 111, 111); fill: rgb(250, 229, 4);"/>
    <ellipse transform="matrix(-0.564038, 0.825748, -0.838388, -0.545527, 1118.907781, 184.439924)" cx="543.093" cy="513.758" rx="4.086" ry="4.126" style="stroke: rgb(111, 111, 111); fill: rgb(250, 229, 4);"/>
    <ellipse transform="matrix(-0.564062, 0.825753, -0.838401, -0.545524, 1166.920747, 133.848017)" cx="543.109" cy="513.747" rx="4.086" ry="4.126" style="stroke: rgb(111, 111, 111); fill: rgb(250, 229, 4);"/>
    <ellipse transform="matrix(-0.564034, 0.825743, -0.838406, -0.545509, 981.932928, -29.926502)" cx="543.106" cy="513.764" rx="4.086" ry="4.126" style="stroke: rgb(111, 111, 111); fill: rgb(250, 229, 4);"/>
    <ellipse transform="matrix(-0.564016, 0.825778, -0.838388, -0.545535, 933.479838, 21.381003)" cx="543.108" cy="513.748" rx="4.086" ry="4.126" style="stroke: rgb(111, 111, 111); fill: rgb(250, 229, 4);"/>
  </g>
</svg>
