<?xml version="1.0" encoding="utf-8"?>
<svg viewBox="60.42993927001953 99.56208801269531 217.72348022460938 300.02978515625" width="217.72348022460938" height="300.02978515625" xmlns="http://www.w3.org/2000/svg" xmlns:bx="https://boxy-svg.com">
  <path d="M 106.24 125.258 L 127.172 164.836 L 85.308 164.836 L 106.24 125.258 Z" style="fill: rgb(136, 232, 179);" transform="matrix(1, 0, 0, 1, -7.105427357601002e-15, -7.105427357601002e-15)" bx:shape="triangle 85.308 125.258 41.864 39.578 0.5 0 1@410bee79"/>
  <path d="M 174.526 32.33 L 195.453 71.917 L 153.599 71.917 L 174.526 32.33 Z" style="fill: rgb(147, 196, 253);" transform="matrix(-0.9994750022888184, -0.032412998378276825, 0.04645500332117081, -0.9990190267562866, 305.5050354003906, 202.77719116210938)" bx:shape="triangle 153.599 32.33 41.854 39.587 0.5 0 1@b85be5c3"/>
  <path d="M 95.488 66.053 L 114.301 110.088 L 76.674 110.088 L 95.488 66.053 Z" style="fill: rgb(134, 164, 255);" transform="matrix(0.8529009819030762, 0.5220719575881958, -0.6911200881004333, 0.7494250535964966, 132.93177795410153, 10.030963897705071)" bx:shape="triangle 76.674 66.053 37.627 44.035 0.5 0 1@3f745ee6"/>
  <path d="M 155.659 36.248 L 174.324 80.633 L 136.994 80.633 L 155.659 36.248 Z" style="fill: rgb(245, 68, 68);" transform="matrix(-0.8310950398445129, -0.5561310052871704, 0.7169109582901001, -0.7235080003738403, 261.86639404296875, 267.5223999023437)" bx:shape="triangle 136.994 36.248 37.33 44.385 0.5 0 1@7ca3922b"/>
  <path d="M 166.615 55.992 L 184.123 103.309 L 149.106 103.309 L 166.615 55.992 Z" style="fill: rgb(255, 107, 107);" transform="matrix(0.10312899947166443, 0.9946680068969727, -0.9978790283203125, 0.07215400785207748, 260.9261474609375, -44.07585525512695)" bx:shape="triangle 149.106 55.992 35.017 47.317 0.5 0 1@afb305d0"/>
  <path d="M 145.853 38.686 L 163.342 86.056 L 128.364 86.056 L 145.853 38.686 Z" style="fill: rgb(177, 247, 168);" transform="matrix(-0.05689600482583046, -0.9983800053596497, 0.9993590116500854, -0.03971799835562706, 146.9457855224609, 298.1650085449218)" bx:shape="triangle 128.364 38.686 34.978 47.37 0.5 0 1@de09d68f"/>
  <path d="M 76.38 118.314 L 94.585 163.819 L 58.174 163.819 L 76.38 118.314 Z" style="fill: rgb(220, 51, 212);" transform="matrix(0.5079600214958191, -0.8613799810409546, 0.9343310594558716, 0.3842540383338928, -79.6645736694336, 200.1624298095703)" bx:shape="triangle 58.174 118.314 36.411 45.505 0.5 0 1@21699a4a"/>
  <path d="M 152.787 36.93 L 171.107 82.15 L 134.466 82.15 L 152.787 36.93 Z" style="fill: rgb(102, 214, 135);" transform="matrix(-0.5441680550575256, 0.8389760255813599, -0.9215520620346069, -0.4168560206890106, 240.9878387451172, 64.79450225830078)" bx:shape="triangle 134.466 36.93 36.641 45.22 0.5 0 1@407b4444"/>
  <path d="M 106.446 149.898 L 123.948 197.234 L 88.945 197.234 L 106.446 149.898 Z" style="fill: rgb(173, 62, 195);" transform="matrix(0.08902600407600403, 0.9960290193557739, -0.9984240531921387, 0.062237001955509186, 277.13055419921875, 87.72999572753906)" bx:shape="triangle 88.945 149.898 35.003 47.336 0.5 0 1@813a0b07"/>
  <path d="M 145.822 38.694 L 163.307 86.074 L 128.336 86.074 L 145.822 38.694 Z" style="fill: rgb(241, 190, 131);" transform="matrix(-0.04271800071001053, -0.9990869760513306, 0.9996389746665955, -0.029808003455400467, 59.209575653076165, 374.79959106445307)" bx:shape="triangle 128.336 38.694 34.971 47.38 0.5 0 1@9f7982a3"/>
  <path d="M 95.405 177.181 L 114.108 221.476 L 76.702 221.476 L 95.405 177.181 Z" style="fill: rgb(229, 169, 84);" transform="matrix(0.6464720368385315, 0.7629368901252747, -0.8733900189399719, 0.516122043132782, 236.5608673095703, 54.5186538696289)" bx:shape="triangle 76.702 177.181 37.406 44.295 0.5 0 1@e4ab056d"/>
  <path d="M 154.908 36.425 L 173.483 81.026 L 136.333 81.026 L 154.908 36.425 Z" style="fill: rgb(120, 116, 250);" transform="matrix(-0.6147520542144775, -0.7887200117111206, 0.8905630111694336, -0.4840890169143677, 182.0283050537109, 402.0075378417968)" bx:shape="triangle 136.333 36.425 37.15 44.601 0.5 0 1@212bc7a4"/>
  <path d="M 168.126 33.561 L 188.285 74.655 L 147.966 74.655 L 168.126 33.561 Z" style="fill: rgb(135, 226, 123);" transform="matrix(0.9055660963058472, -0.42420703172683716, 0.5642129778862, 0.8399800062179565, 47.0802879333496, 171.57736206054688)" bx:shape="triangle 147.966 33.561 40.319 41.094 0.5 0 1@a9d5bbb4"/>
  <path d="M 163.079 34.6 L 182.633 76.966 L 143.524 76.966 L 163.079 34.6 Z" style="fill: rgb(94, 89, 241);" transform="matrix(-0.8147749900817871, 0.57977694272995, -0.7255200147628784, -0.7110669612884521, 331.32147216796875, 207.57984924316406)" bx:shape="triangle 143.524 34.6 39.109 42.366 0.5 0 1@70e323d8"/>
  <path d="M -232.343 -382.609 L -211.411 -343.031 L -253.275 -343.031 L -232.343 -382.609 Z" style="fill: rgb(136, 232, 179);" transform="matrix(-1, 0, 0, -1, -7.105427357601002e-15, -7.105427357601002e-15)" bx:shape="triangle -253.275 -382.609 41.864 39.578 0.5 0 1@2ee36d2a"/>
  <path d="M -132.672 -32.33 L -111.745 7.257 L -153.599 7.257 L -132.672 -32.33 Z" style="fill: rgb(147, 196, 253);" transform="matrix(0.9994750022888184, 0.032412998378276825, -0.04645500332117081, 0.9990200400352478, 337.1111755371094, 379.6444702148437)" bx:shape="triangle -153.599 -32.33 41.854 39.587 0.5 0 1@4a075b6b"/>
  <path d="M -118.329 -36.248 L -99.664 8.137 L -136.994 8.137 L -118.329 -36.248 Z" style="fill: rgb(245, 68, 68);" transform="matrix(0.8310950398445129, 0.5561299920082092, -0.7169099450111389, 0.7235080003738403, 252.45364379882812, 445.1702575683593)" bx:shape="triangle -136.994 -36.248 37.33 44.385 0.5 0 1@17b5331e"/>
  <path d="M -131.597 -55.992 L -114.089 -8.675 L -149.106 -8.675 L -131.597 -55.992 Z" style="fill: rgb(255, 107, 107);" transform="matrix(-0.10312800109386444, -0.9946680068969727, 0.9978790283203125, -0.07215500622987747, 158.6487884521484, 247.24084472656247)" bx:shape="triangle -149.106 -55.992 35.017 47.317 0.5 0 1@33b2ed48"/>
  <path d="M -110.875 -38.686 L -93.386 8.684 L -128.364 8.684 L -110.875 -38.686 Z" style="fill: rgb(177, 247, 168);" transform="matrix(0.05689700320363045, 0.9983800053596497, -0.9993590116500854, 0.03971799835562706, 128.92208862304685, 469.0868835449218)" bx:shape="triangle -128.364 -38.686 34.978 47.37 0.5 0 1@06ceb1c7"/>
  <path d="M -39.968 -118.314 L -21.763 -72.809 L -58.174 -72.809 L -39.968 -118.314 Z" style="fill: rgb(220, 51, 212);" transform="matrix(-0.5079590082168579, 0.8613809943199158, -0.9343310594558716, -0.3842540383338928, 138.0589447021484, 316.99990844726557)" bx:shape="triangle -58.174 -118.314 36.411 45.505 0.5 0 1@ad941f66"/>
  <path d="M -116.146 -36.93 L -97.825 8.29 L -134.466 8.29 L -116.146 -36.93 Z" style="fill: rgb(102, 214, 135);" transform="matrix(0.5441680550575256, -0.8389760255813599, 0.9215520620346069, 0.4168570339679718, 312.0064392089844, 248.23381042480466)" bx:shape="triangle -134.466 -36.93 36.641 45.22 0.5 0 1@2953a4e6"/>
  <path d="M -71.443 -149.898 L -53.942 -102.562 L -88.945 -102.562 L -71.443 -149.898 Z" style="fill: rgb(173, 62, 195);" transform="matrix(-0.08902700990438461, -0.9960299730300903, 0.9984240531921387, -0.062238000333309174, 344.9390869140625, 224.29450988769528)" bx:shape="triangle -88.945 -149.898 35.003 47.336 0.5 0 1@90657349"/>
  <path d="M -110.851 -38.694 L -93.365 8.686 L -128.336 8.686 L -110.851 -38.694 Z" style="fill: rgb(241, 190, 131);" transform="matrix(0.042719002813100815, 0.9990869760513306, -0.9996389746665955, 0.029808003455400467, 212.97756958007812, 391.8126831054687)" bx:shape="triangle -128.336 -38.694 34.971 47.38 0.5 0 1@325b405b"/>
  <path d="M -57.999 -177.181 L -39.296 -132.886 L -76.702 -132.886 L -57.999 -177.181 Z" style="fill: rgb(229, 169, 84);" transform="matrix(-0.6464729905128479, -0.7629379034042358, 0.8733879923820496, -0.5161229968070984, 312.34698486328125, 153.41708374023438)" bx:shape="triangle -76.702 -177.181 37.406 44.295 0.5 0 1@7796f1eb"/>
  <path d="M -117.758 -36.425 L -99.183 8.176 L -136.333 8.176 L -117.758 -36.425 Z" style="fill: rgb(120, 116, 250);" transform="matrix(0.614753007888794, 0.7887200117111206, -0.8905630111694336, 0.48409003019332886, 259.299560546875, 356.1821899414062)" bx:shape="triangle -136.333 -36.425 37.15 44.601 0.5 0 1@a758a672"/>
  <path d="M -127.806 -33.561 L -107.647 7.533 L -147.966 7.533 L -127.806 -33.561 Z" style="fill: rgb(135, 226, 123);" transform="matrix(-0.905565083026886, 0.42420703172683716, -0.5642129778862, -0.8399800062179565, -14.353766441345218, 405.4453735351562)" bx:shape="triangle -147.966 -33.561 40.319 41.094 0.5 0 1@e13f17e1"/>
  <path d="M -123.969 -34.6 L -104.415 7.766 L -143.524 7.766 L -123.969 -34.6 Z" style="fill: rgb(94, 89, 241);" transform="matrix(0.8147749900817871, -0.57977694272995, 0.7255210280418396, 0.7110669612884521, 291.346435546875, 183.0693359375)" bx:shape="triangle -143.524 -34.6 39.109 42.366 0.5 0 1@f4a4ec3a"/>
  <path d="M 95.488 66.053 L 114.301 110.088 L 76.674 110.088 L 95.488 66.053 Z" style="fill: rgb(134, 164, 255);" transform="matrix(0.8529009819030762, 0.5220729112625122, -0.6911200881004333, 0.7494250535964966, 177.68815612792966, 255.39437866210935)" bx:shape="triangle 76.674 66.053 37.627 44.035 0.5 0 1@3f745ee6"/>
</svg>