<?xml version="1.0" standalone="no"?>
<!DOCTYPE svg PUBLIC "-//W3C//DTD SVG 20010904//EN"
 "http://www.w3.org/TR/2001/REC-SVG-20010904/DTD/svg10.dtd">
<svg version="1.0" xmlns="http://www.w3.org/2000/svg"
 width="214.000000pt" height="214.000000pt" viewBox="0 0 214.000000 214.000000"
 preserveAspectRatio="xMidYMid meet">
<metadata>
Created by potrace 1.11, written by Peter Selinger 2001-2013
</metadata>
<g transform="translate(0.000000,214.000000) scale(0.100000,-0.100000)"
fill="#000000" stroke="none">
<path d="M685 2018 c-53 -55 -56 -60 -13 -19 53 51 58 53 73 37 21 -21 37 -17
50 13 7 16 16 21 33 18 12 -2 22 0 22 4 0 5 -8 9 -19 9 -10 0 -31 3 -47 6 -26
5 -37 -3 -99 -68z"/>
<path d="M864 2069 c-4 -7 -8 -22 -10 -34 -2 -19 3 -22 31 -22 18 1 44 -7 59
-16 22 -15 25 -24 23 -56 -3 -34 -1 -38 17 -33 12 3 26 9 32 13 6 5 13 6 17 3
3 -3 5 1 3 9 -3 21 -26 47 -41 47 -19 0 -63 38 -77 68 -14 29 -42 40 -54 21z"/>
<path d="M740 1890 c-56 -60 -100 -110 -97 -110 3 0 51 50 107 110 56 61 100
110 97 110 -3 0 -51 -49 -107 -110z"/>
<path d="M534 1853 c-43 -49 -91 -102 -107 -120 -22 -23 -27 -37 -22 -50 12
-28 16 -45 18 -91 2 -44 19 -65 44 -55 16 6 73 -44 73 -63 0 -18 30 -45 41
-38 6 3 19 -2 30 -12 10 -9 19 -12 19 -7 0 6 -6 13 -14 16 -8 3 -13 18 -12 36
1 23 20 51 79 116 43 47 75 85 70 84 -4 0 -41 -38 -82 -85 -82 -93 -105 -102
-152 -61 -37 34 -43 66 -16 97 l22 25 -27 -23 c-33 -29 -59 -25 -69 10 -6 21
-3 28 11 33 23 7 34 35 20 49 -19 19 -10 33 76 130 47 53 83 96 81 96 -3 0
-40 -39 -83 -87z"/>
<path d="M1094 1873 c28 -29 52 -50 55 -48 2 3 2 6 0 8 -2 1 -27 22 -54 47
l-50 45 49 -52z"/>
<path d="M905 1838 l-50 -53 53 50 c28 27 52 51 52 52 0 8 -9 -1 -55 -49z"/>
<path d="M1190 1785 c19 -19 36 -35 39 -35 3 0 -10 16 -29 35 -19 19 -36 35
-39 35 -3 0 10 -16 29 -35z"/>
<path d="M805 1728 l-50 -53 53 50 c28 27 52 51 52 52 0 8 -9 -1 -55 -49z"/>
<path d="M571 1708 c-30 -32 -50 -58 -45 -57 11 1 109 108 103 112 -2 1 -28
-23 -58 -55z"/>
<path d="M1270 1715 c19 -19 36 -35 39 -35 3 0 -10 16 -29 35 -19 19 -36 35
-39 35 -3 0 10 -16 29 -35z"/>
<path d="M1323 1674 c9 -15 167 -158 167 -151 0 2 -39 40 -87 83 -48 44 -84
74 -80 68z"/>
<path d="M1500 1517 c0 -2 15 -16 33 -33 l32 -29 -29 33 c-28 30 -36 37 -36
29z"/>
<path d="M1576 1447 c3 -10 9 -15 12 -12 3 3 0 11 -7 18 -10 9 -11 8 -5 -6z"/>
<path d="M1629 1397 c19 -20 36 -37 38 -37 10 0 -14 29 -40 49 l-32 25 34 -37z"/>
<path d="M643 1404 c3 -6 62 -60 129 -120 67 -60 119 -104 115 -98 -3 6 -62
60 -129 120 -67 60 -119 104 -115 98z"/>
<path d="M1680 1357 c0 -2 15 -16 33 -33 l32 -29 -29 33 c-28 30 -36 37 -36
29z"/>
<path d="M1819 1232 c42 -39 69 -72 63 -76 -5 -3 -8 -14 -5 -24 2 -10 -6 -27
-21 -41 -14 -14 -26 -28 -26 -33 0 -5 12 5 28 21 37 39 83 47 109 18 33 -36
36 -80 7 -107 -13 -13 -24 -27 -24 -32 0 -5 13 6 30 25 29 33 59 43 71 24 9
-13 4 47 -5 61 -4 7 -15 12 -24 12 -9 0 -32 14 -51 30 -18 17 -30 30 -26 30 5
0 0 9 -10 20 -10 11 -23 19 -29 17 -6 -2 -45 25 -86 60 l-75 65 74 -70z"/>
<path d="M820 1169 c0 -6 -25 -36 -55 -68 -30 -32 -55 -60 -55 -64 0 -3 22 18
49 46 42 43 51 49 64 38 12 -9 21 -10 37 -1 17 9 25 9 38 -3 40 -34 39 -25 -2
17 -42 43 -76 59 -76 35z"/>
<path d="M932 1145 c21 -22 39 -37 41 -34 2 2 -15 19 -37 38 l-41 35 37 -39z"/>
<path d="M1030 1055 c19 -19 36 -35 39 -35 3 0 -10 16 -29 35 -19 19 -36 35
-39 35 -3 0 10 -16 29 -35z"/>
<path d="M1028 996 c74 -72 84 -86 73 -100 -20 -24 -5 -54 24 -48 28 5 46 43
24 51 -8 2 -55 44 -105 92 -49 49 -93 89 -96 89 -3 0 33 -38 80 -84z"/>
<path d="M1707 928 c-60 -65 -107 -118 -104 -118 7 0 220 230 216 234 -2 1
-53 -51 -112 -116z"/>
<path d="M1125 975 c77 -74 285 -257 285 -252 0 3 -57 56 -127 119 -161 142
-224 196 -158 133z"/>
<path d="M585 909 c-55 -56 -89 -93 -75 -83 28 21 186 184 179 184 -2 0 -49
-46 -104 -101z"/>
<path d="M2062 970 c2 -20 -2 -26 -20 -28 -12 -2 -27 -12 -32 -22 -8 -15 -5
-22 12 -34 18 -13 19 -18 8 -33 -6 -10 1 -4 17 14 23 26 28 40 26 74 -1 23 -5
44 -8 48 -4 3 -5 -5 -3 -19z"/>
<path d="M1880 885 l-54 -60 59 57 c32 32 57 59 55 61 -3 1 -30 -24 -60 -58z"/>
<path d="M1075 820 c-3 -6 1 -7 9 -4 18 7 21 14 7 14 -6 0 -13 -4 -16 -10z"/>
<path d="M1775 770 c-27 -27 -45 -50 -40 -49 10 1 102 99 94 99 -3 0 -27 -22
-54 -50z"/>
<path d="M1965 780 c-16 -16 -25 -30 -19 -29 8 0 60 59 52 59 -3 0 -17 -13
-33 -30z"/>
<path d="M970 703 l-95 -98 98 95 c53 52 97 96 97 97 0 8 -12 -4 -100 -94z"/>
<path d="M1537 743 c-35 -37 -75 -49 -103 -31 -6 4 -4 -8 4 -27 10 -22 27 -38
46 -45 38 -13 76 -48 70 -64 -7 -18 22 -40 42 -32 9 4 22 2 28 -3 6 -4 31 -11
57 -15 44 -6 46 -6 101 46 30 29 35 36 11 15 l-44 -38 -18 23 c-16 19 -21 20
-35 9 -9 -7 -16 -20 -16 -28 0 -9 -9 -13 -27 -10 -22 3 -29 10 -31 30 -2 15
-9 28 -15 28 -7 1 -22 3 -35 4 -13 1 -33 12 -46 24 -31 29 -24 65 22 114 20
20 34 37 31 37 -3 0 -21 -17 -42 -37z"/>
<path d="M350 665 l-95 -100 100 97 c54 54 97 99 95 100 -3 2 -48 -42 -100
-97z"/>
<path d="M1889 693 l-34 -38 38 34 c34 33 42 41 34 41 -2 0 -19 -17 -38 -37z"/>
<path d="M1675 660 c-27 -27 -47 -51 -44 -53 2 -1 26 21 53 50 62 67 56 69 -9
3z"/>
<path d="M852 584 c-7 -8 -8 -14 -3 -14 10 0 25 19 20 25 -2 1 -10 -3 -17 -11z"/>
<path d="M740 465 c-52 -52 -92 -96 -89 -97 2 -2 47 41 98 94 52 54 93 98 90
98 -2 0 -47 -43 -99 -95z"/>
<path d="M126 431 c-59 -60 -106 -115 -104 -123 1 -7 28 -36 58 -63 30 -27 44
-36 30 -20 -14 17 -31 34 -37 38 -10 6 -10 12 0 27 9 16 9 24 -1 41 -12 19 -6
28 79 115 51 52 91 94 88 94 -3 0 -53 -49 -113 -109z"/>
<path d="M550 263 l-85 -88 88 85 c81 79 92 90 84 90 -1 0 -41 -39 -87 -87z"/>
<path d="M210 128 c41 -42 80 -85 86 -95 6 -10 22 -18 35 -18 19 0 25 6 27 29
4 28 3 29 -34 23 -35 -6 -41 -3 -113 65 l-76 72 75 -76z"/>
<path d="M445 160 c-3 -6 1 -7 9 -4 18 7 21 14 7 14 -6 0 -13 -4 -16 -10z"/>
<path d="M396 102 c-22 -27 -24 -32 -7 -17 20 17 47 55 39 55 -2 0 -16 -17
-32 -38z"/>
</g>
</svg>
