<?xml version="1.0" standalone="no"?>
<!DOCTYPE svg PUBLIC "-//W3C//DTD SVG 20010904//EN"
 "http://www.w3.org/TR/2001/REC-SVG-20010904/DTD/svg10.dtd">
<svg version="1.0" xmlns="http://www.w3.org/2000/svg"
 width="260.000000pt" height="260.000000pt" viewBox="0 0 260.000000 260.000000"
 preserveAspectRatio="xMidYMid meet">
<metadata>
Created by potrace 1.11, written by Peter Selinger 2001-2013
</metadata>
<g transform="translate(0.000000,260.000000) scale(0.100000,-0.100000)"
fill="#000000" stroke="none">
<path d="M1294 1976 c-125 -29 -255 -106 -368 -220 -310 -311 -393 -801 -170
-1011 23 -22 57 -54 76 -71 18 -17 55 -57 82 -88 125 -146 333 -230 566 -229
328 1 613 190 658 436 18 92 31 190 37 265 5 57 4 72 -8 72 -7 0 -24 25 -37
57 -13 31 -43 81 -68 111 l-44 54 24 44 23 44 -52 49 c-29 26 -53 56 -53 66 0
29 -59 143 -93 179 -18 18 -68 57 -112 86 -44 29 -99 70 -122 90 -75 66 -218
93 -339 66z m172 -808 c-61 -102 -206 -228 -263 -228 -16 0 -34 15 -58 48 -19
26 -35 52 -35 58 0 29 94 105 161 130 55 20 178 42 201 36 16 -4 16 -8 -6 -44z"/>
</g>
</svg>
